<?xml version="1.0" standalone="no"?>
<!DOCTYPE svg PUBLIC "-//W3C//DTD SVG 20010904//EN"
 "http://www.w3.org/TR/2001/REC-SVG-20010904/DTD/svg10.dtd">
<svg version="1.0" xmlns="http://www.w3.org/2000/svg"
 width="80.000000pt" height="80.000000pt" viewBox="0 0 80.000000 80.000000"
 preserveAspectRatio="xMidYMid meet">
<metadata>
Created by potrace 1.14, written by Peter Selinger 2001-2017
</metadata>
<g transform="translate(0.000000,80.000000) scale(0.100000,-0.100000)"
fill="#000000" stroke="none">
<path d="M260 611 c-74 -48 -135 -91 -134 -96 0 -6 62 -50 137 -98 l137 -88
137 88 c75 48 137 92 137 98 1 8 -261 184 -274 184 -3 0 -66 -40 -140 -88z
m164 -50 c3 -5 3 -30 0 -55 -6 -38 -10 -46 -28 -46 -19 0 -21 6 -20 48 0 26 1
50 2 55 3 10 40 9 46 -2z"/>
<path d="M140 412 l-23 -18 136 -87 c75 -48 141 -87 147 -87 6 0 71 39 146 86
106 69 132 89 123 100 -26 32 -48 26 -160 -45 l-110 -70 -108 70 c-59 38 -112
69 -118 69 -6 0 -21 -8 -33 -18z"/>
<path d="M143 298 c-13 -6 -23 -14 -23 -17 0 -10 263 -175 279 -175 17 0 281
165 281 175 0 4 -13 12 -30 19 -28 12 -35 9 -134 -54 -57 -36 -109 -66 -116
-66 -8 0 -59 29 -115 65 -56 36 -106 65 -111 64 -5 0 -19 -5 -31 -11z"/>
</g>
</svg>
